<?xml version="1.0" standalone="no"?>
<!DOCTYPE svg PUBLIC "-//W3C//DTD SVG 20010904//EN"
 "http://www.w3.org/TR/2001/REC-SVG-20010904/DTD/svg10.dtd">
<svg version="1.0" xmlns="http://www.w3.org/2000/svg"
 width="1024.000000pt" height="1024.000000pt" viewBox="0 0 1024.000000 1024.000000"
 preserveAspectRatio="xMidYMid meet">
<metadata>
Created by potrace 1.14, written by Peter Selinger 2001-2017
</metadata>
<g transform="translate(0.000000,1024.000000) scale(0.100000,-0.100000)"
fill="#000000" stroke="none">
<path d="M5028 10095 c-1 -1 -19 -5 -38 -8 -254 -35 -497 -243 -579 -498 -32
-97 -33 -106 -37 -219 -8 -253 107 -484 313 -633 l43 -30 0 -284 0 -283 -1342
0 c-739 -1 -1361 -3 -1383 -6 -422 -52 -769 -365 -859 -774 -24 -107 -25 -123
-25 -556 l-1 -391 -40 -13 c-47 -16 -79 -49 -125 -134 -52 -93 -107 -266 -130
-406 -3 -19 -8 -42 -10 -50 -4 -17 -11 -59 -20 -135 -4 -27 -8 -61 -10 -73
-27 -163 -27 -760 0 -959 2 -21 7 -56 9 -78 25 -211 88 -448 151 -575 39 -78
104 -148 145 -157 l30 -5 0 -1352 c1 -743 2 -1378 4 -1411 9 -153 61 -312 150
-455 55 -88 60 -94 146 -180 132 -132 309 -229 480 -265 14 -3 45 -10 70 -15
27 -5 1286 -9 3150 -9 2967 0 3109 1 3190 18 260 56 470 190 620 395 93 127
171 332 184 479 3 29 5 669 5 1423 l1 1370 38 17 c64 28 125 120 176 265 29
82 69 241 82 330 3 20 7 44 9 52 2 8 7 42 10 75 4 33 8 71 10 85 27 166 27
730 0 950 -38 308 -89 511 -164 655 -40 78 -97 141 -136 151 l-25 6 -1 407 c0
223 -3 420 -5 436 -36 241 -126 427 -287 589 -133 133 -269 211 -466 268 l-76
22 -1387 3 -1388 4 0 284 0 284 45 31 c146 100 254 268 300 463 14 60 15 242
1 295 -3 12 -8 30 -10 40 -64 272 -308 498 -595 550 -51 9 -215 14 -223 7z
m3084 -2576 c187 -39 348 -200 387 -387 16 -75 16 -5909 0 -5984 -39 -187
-200 -348 -387 -387 -75 -16 -5909 -16 -5984 0 -187 39 -348 200 -387 387 -16
75 -16 5909 0 5984 38 182 191 340 372 384 71 17 5918 20 5999 3z"/>
<path d="M3408 6405 c-1 -1 -25 -6 -53 -9 -27 -4 -82 -18 -121 -31 -361 -120
-599 -456 -589 -832 3 -136 10 -178 47 -280 104 -289 350 -498 653 -557 78
-15 262 -16 328 -1 311 67 567 298 655 590 32 105 34 120 37 252 3 137 -19
246 -73 366 -139 305 -450 505 -787 505 -51 0 -95 -1 -97 -3z"/>
<path d="M6592 6398 c-262 -41 -515 -230 -632 -471 -65 -135 -88 -240 -85
-387 1 -69 5 -138 9 -155 62 -277 226 -493 463 -613 57 -29 186 -72 242 -80
60 -9 233 -9 291 0 169 26 379 140 491 266 113 129 194 292 217 442 15 95 7
271 -16 359 -69 267 -262 487 -515 587 -139 56 -318 76 -465 52z"/>
<path d="M4934 4677 c-100 -150 -267 -401 -373 -559 l-191 -288 746 0 746 0
-26 34 c-14 19 -26 37 -26 40 0 2 -23 37 -50 78 -28 40 -55 80 -60 88 -6 8
-38 57 -73 108 -34 52 -67 101 -72 110 -15 25 -427 646 -434 654 -3 4 -88
-115 -187 -265z"/>
<path d="M2687 3109 c-132 -31 -262 -158 -296 -289 -3 -14 -6 -259 -6 -546 l0
-520 38 -76 c52 -106 140 -181 251 -216 12 -4 1101 -8 2420 -9 2650 -3 2462
-8 2569 60 84 54 133 119 169 222 15 45 16 102 15 560 -2 281 -6 520 -9 533
-16 52 -74 145 -115 183 -24 22 -74 55 -111 72 l-67 32 -2410 2 c-1370 0
-2426 -3 -2448 -8z m1339 -379 c-5 -8 -167 -284 -177 -300 -5 -8 -40 -68 -78
-134 l-69 -118 -84 143 c-180 306 -238 406 -238 410 0 3 146 5 324 5 179 0
323 -3 322 -6z m579 -445 l0 -449 -72 -2 c-40 -2 -74 0 -74 4 -7 37 -3 889 4
893 5 4 39 6 76 5 l66 -1 0 -450z m1759 430 c-4 -11 -10 -24 -14 -30 -4 -5
-55 -102 -113 -215 -58 -113 -135 -261 -171 -330 -36 -69 -86 -166 -112 -215
l-46 -91 -219 0 c-210 0 -268 7 -176 21 23 4 71 15 106 26 214 65 324 210 320
426 -3 131 -48 239 -127 301 -45 36 -175 100 -217 108 -87 16 -15 20 360 20
412 -1 415 -1 409 -21z m981 -7 c70 -37 98 -66 130 -137 17 -39 19 -67 19
-270 0 -270 -6 -312 -54 -363 -11 -12 -20 -25 -20 -30 0 -4 -7 -8 -15 -8 -8 0
-15 -4 -15 -9 0 -10 -62 -41 -83 -41 -8 0 -38 46 -72 113 -31 61 -79 153 -105
202 -26 50 -87 167 -135 260 -48 94 -105 202 -126 241 l-38 70 232 -1 c228 -2
233 -2 282 -27z m-4410 -424 c0 -348 -3 -434 -13 -434 -40 0 -142 77 -142 107
0 7 -4 13 -9 13 -9 0 -18 19 -29 60 -9 34 -8 468 1 505 12 46 44 100 79 132
27 26 100 64 108 57 2 -3 5 -201 5 -440z m2465 236 c79 -18 135 -47 169 -86
85 -97 56 -269 -55 -327 -79 -41 -134 -49 -370 -53 l-231 -4 -1 237 c0 131 4
241 9 244 18 11 424 2 479 -11z m1334 -148 l85 -169 -214 1 c-188 0 -212 2
-206 16 8 20 145 292 153 306 4 6 28 11 52 12 l46 2 84 -168z m-3317 -223 c95
-158 175 -293 178 -301 5 -12 -25 -14 -180 -14 -120 0 -185 4 -186 11 -1 18 0
600 1 610 1 6 4 3 8 -5 4 -8 85 -144 179 -301z m738 1 c0 -170 -2 -311 -5
-311 -3 -1 -87 -3 -188 -4 -126 -1 -181 2 -179 9 3 6 43 76 91 155 47 78 86
147 86 152 0 5 5 9 10 9 6 0 10 4 10 9 0 7 169 291 173 291 1 0 2 -139 2 -310z
m2763 -159 c10 -6 85 -150 80 -153 -2 0 -180 -2 -396 -3 -352 -1 -392 0 -387
14 4 9 21 45 38 82 l32 65 312 1 c171 0 316 -3 321 -6z m-1461 -157 c-3 -3
-12 -4 -19 -1 -8 3 -5 6 6 6 11 1 17 -2 13 -5z"/>
</g>
</svg>
