<?xml version="1.0" standalone="no"?>
<!DOCTYPE svg PUBLIC "-//W3C//DTD SVG 20010904//EN"
 "http://www.w3.org/TR/2001/REC-SVG-20010904/DTD/svg10.dtd">
<svg version="1.0" xmlns="http://www.w3.org/2000/svg"
 width="700.000000pt" height="700.000000pt" viewBox="0 0 700.000000 700.000000"
 preserveAspectRatio="xMidYMid meet">
<metadata>
Created by potrace 1.14, written by Peter Selinger 2001-2017
</metadata>
<g transform="translate(0.000000,700.000000) scale(0.100000,-0.100000)"
fill="#000000" stroke="none">
<path d="M3384 6889 c-100 -25 -169 -64 -244 -139 -72 -71 -112 -139 -135
-232 -15 -57 -22 -198 -11 -216 3 -5 8 -24 11 -43 15 -83 111 -225 190 -279
l40 -28 -2 -178 c0 -99 -2 -186 -2 -194 -1 -13 -110 -15 -923 -16 -508 0 -941
-4 -963 -7 -256 -45 -466 -223 -544 -462 -31 -93 -34 -131 -35 -427 l-1 -278
-32 -17 c-38 -21 -73 -65 -98 -125 -9 -24 -21 -52 -26 -63 -11 -24 -39 -130
-44 -165 -2 -14 -11 -77 -21 -140 -13 -85 -18 -177 -18 -355 0 -256 1 -287 14
-380 5 -33 12 -80 15 -104 12 -83 55 -234 84 -297 32 -68 81 -124 109 -124 16
0 17 -56 17 -942 0 -519 4 -965 8 -993 5 -27 10 -59 12 -70 5 -34 47 -139 61
-156 8 -8 14 -18 14 -22 0 -25 149 -197 171 -197 4 0 14 -7 22 -15 43 -42 180
-101 287 -121 49 -10 4233 -11 4300 -2 229 32 426 176 530 386 12 24 30 78 42
120 20 75 20 102 22 1040 1 953 1 964 21 974 40 22 68 54 97 118 17 35 31 69
32 75 1 5 5 15 9 21 4 7 9 29 13 50 3 22 8 42 10 45 2 3 6 21 9 40 3 19 8 41
10 49 2 8 7 39 10 69 4 30 8 61 10 70 8 44 18 230 17 346 0 156 -9 294 -27
405 -3 19 -7 49 -9 65 -2 17 -9 50 -16 75 -7 25 -14 54 -16 64 -20 104 -84
224 -136 256 l-33 20 -1 282 c-1 184 -5 304 -13 343 -59 282 -278 491 -566
541 -22 4 -455 7 -962 8 -813 1 -923 3 -924 16 -1 8 -2 94 -3 190 -1 192 -6
175 69 235 43 34 116 133 138 187 82 198 31 430 -129 577 -122 113 -301 159
-460 120z m2166 -1751 c130 -31 227 -129 258 -258 15 -68 13 -4037 -3 -4106
-24 -104 -91 -182 -200 -235 l-50 -24 -2035 0 c-1119 0 -2050 3 -2068 5 -19 2
-36 8 -38 12 -3 4 -11 8 -19 8 -23 0 -102 58 -133 98 -38 48 -57 86 -70 142
-11 48 -11 4076 0 4116 10 35 45 99 73 132 35 41 118 93 174 108 63 16 4043
18 4111 2z"/>
<path d="M2230 4357 c-73 -22 -131 -49 -158 -74 -7 -7 -17 -13 -21 -13 -3 0
-29 -22 -57 -48 -122 -116 -186 -261 -187 -422 0 -89 6 -131 33 -207 60 -171
200 -306 378 -365 89 -30 260 -32 342 -5 165 56 275 144 352 282 79 141 95
320 44 469 -61 179 -194 314 -371 377 -91 32 -255 35 -355 6z"/>
<path d="M4496 4373 c-2 -3 -19 -7 -38 -9 -54 -9 -172 -70 -237 -124 -76 -64
-142 -163 -177 -265 -39 -113 -39 -255 0 -369 80 -237 292 -396 536 -405 289
-10 539 183 599 462 67 311 -114 612 -417 696 -64 17 -252 27 -266 14z"/>
<path d="M3449 3313 c-24 -37 -47 -69 -51 -71 -5 -2 -8 -7 -8 -11 0 -4 -90
-142 -199 -307 -110 -164 -198 -300 -196 -302 4 -5 997 -4 1001 1 4 4 -477
732 -495 750 -4 4 -28 -23 -52 -60z"/>
<path d="M1821 2119 c-94 -30 -170 -114 -187 -204 -13 -71 -8 -688 6 -731 26
-80 86 -143 164 -173 50 -19 90 -20 1686 -20 1117 0 1648 3 1676 10 65 17 134
76 169 144 l30 59 0 360 c0 359 0 361 -23 406 -33 64 -87 115 -145 140 l-50
22 -1639 1 c-1465 2 -1644 0 -1687 -14z m2521 -282 c-11 -18 -72 -135 -137
-262 -65 -126 -129 -250 -142 -275 l-24 -45 -159 -1 c-147 0 -190 3 -126 10
13 2 57 13 96 26 149 48 220 155 207 310 -11 127 -70 198 -203 245 -36 13 -67
24 -69 26 -2 2 127 3 286 1 l290 -3 -19 -32z m-1592 28 c0 -5 -64 -114 -157
-268 -29 -49 -53 -93 -53 -98 0 -19 -18 2 -52 59 -18 31 -35 62 -37 67 -2 6
-21 37 -41 70 -20 33 -51 86 -69 118 l-32 57 220 0 c122 0 221 -2 221 -5z
m400 -304 l0 -309 -52 2 -53 2 0 299 c-1 165 0 303 2 308 3 4 26 7 54 7 l49 0
0 -309z m1885 284 c75 -50 88 -87 90 -270 1 -157 -8 -215 -41 -254 -27 -32
-84 -65 -94 -55 -11 12 -40 66 -150 279 -51 99 -110 213 -131 253 l-39 74 168
-4 c146 -3 171 -5 197 -23z m-3029 -280 c-1 -162 -4 -295 -8 -295 -5 0 -14 0
-22 0 -20 0 -76 58 -92 96 -18 43 -20 333 -3 384 13 39 56 90 76 90 7 0 13 5
13 10 0 6 8 10 18 10 18 0 19 -16 18 -295z m1695 155 c65 -16 108 -45 125 -85
27 -65 14 -135 -33 -177 -41 -38 -103 -50 -263 -53 -85 -1 -159 -1 -165 1 -8
3 -12 179 -6 306 1 11 11 18 29 20 56 6 269 -2 313 -12z m841 11 c11 -1 120
-221 111 -222 -23 -3 -269 -4 -275 -1 -7 3 83 193 104 219 6 7 20 11 32 9 11
-3 24 -5 28 -5z m-1700 -73 c-6 -6 -7 -22 -2 -37 4 -14 4 -34 0 -45 -3 -10 -3
-39 0 -65 3 -25 3 -59 0 -76 -4 -16 -3 -40 2 -52 4 -14 4 -23 -3 -23 -6 0 -6
-7 1 -20 6 -11 7 -20 2 -20 -4 0 -6 -15 -4 -33 l4 -33 -125 0 c-69 1 -129 4
-133 9 -4 4 -2 7 4 7 6 0 14 10 18 23 4 12 17 36 30 53 13 17 24 34 24 38 0 3
12 25 27 49 15 23 32 51 38 62 24 43 40 70 45 75 8 8 28 41 46 77 9 18 21 30
26 27 6 -4 6 -10 0 -16z m-614 -5 c12 -30 66 -118 74 -121 4 -2 8 -7 8 -12 0
-4 32 -61 71 -126 39 -66 73 -124 76 -130 2 -7 -38 -10 -122 -11 -69 0 -125 3
-126 6 -1 3 -2 97 -3 209 -1 188 4 228 22 185z m2532 -343 l28 -56 -269 0
c-148 0 -269 3 -269 8 0 5 11 30 24 56 l24 48 217 -1 217 0 28 -55z"/>
</g>
</svg>
